<?xml version="1.0" encoding="utf-8"?>
<!-- Generator: Adobe Illustrator 24.1.0, SVG Export Plug-In . SVG Version: 6.00 Build 0)  -->
<svg version="1.1" id="Layer_1" xmlns="http://www.w3.org/2000/svg" xmlns:xlink="http://www.w3.org/1999/xlink" x="0px" y="0px"
	 viewBox="0 0 511 511" style="enable-background:new 0 0 511 511;" xml:space="preserve">
<path d="M27.2,201.1c1.8,0.7,3.7,1.1,5.6,1.1c2,0,4-0.4,5.8-1.2l44.8-18.9c7.6-3.2,11.2-12,8-19.6c-3.2-7.6-12-11.2-19.6-8l-11,4.6
	c34-77.4,110.9-128.2,196.4-128.2c97.8,0,183.3,66.1,207.7,160.9c1.7,6.7,7.8,11.2,14.5,11.2c1.2,0,2.5-0.2,3.8-0.5
	c8-2.1,12.8-10.2,10.7-18.2C466.1,76.4,368.8,1,257.3,1c-98,0-186.1,58.6-224.5,147.6l-5.1-12c-3.2-7.6-12-11.2-19.6-8
	c-7.6,3.2-11.2,12-8,19.6l18.9,44.8C20.6,196.7,23.6,199.6,27.2,201.1z"/>
<path d="M508.8,361.7l-18.9-44.8c-1.5-3.7-4.5-6.6-8.2-8.1c-3.7-1.5-7.8-1.5-11.5,0.1l-44.8,18.9c-7.6,3.2-11.2,12-8,19.6
	s12,11.2,19.6,8l12.5-5.3C416.6,429.6,338.6,482,251.7,482c-97.8,0-183.3-66.1-207.7-160.9c-2.1-8-10.2-12.8-18.2-10.7
	c-8,2.1-12.8,10.2-10.7,18.2C42.9,436.6,140.2,512,251.7,512c98.6,0,187.1-59.3,225.1-149.1l4.4,10.5c2.4,5.7,8,9.2,13.8,9.2
	c1.9,0,3.9-0.4,5.8-1.2C508.5,378.1,512,369.3,508.8,361.7z"/>
</svg>
