<svg height="512" viewBox="0 0 16 16" width="512" xmlns="http://www.w3.org/2000/svg"><path d="m10.1011 4.5 1.81494-2.72266c.102051-.15332.111816-.350586.0249023-.513184-.0869141-.162598-.256348-.26416-.440918-.26416h-8.5v-.5c0-.276367-.223633-.5-.5-.5s-.5.223633-.5.5v14.5h-2v1h5v-1h-2v-7h8.5c.18457 0 .354004-.101562.440918-.26416.0869141-.162598.0771484-.359863-.0249023-.513184l-1.81494-2.72266zm-7.10107 2.5v-5h7.56592l-1.48193 2.22266c-.111816.167969-.111816.386719 0 .554688l1.48193 2.22266h-7.56592z" transform="translate(2)"/></svg>