<?xml version="1.0" encoding="utf-8"?>
<!-- Generator: Adobe Illustrator 24.1.0, SVG Export Plug-In . SVG Version: 6.00 Build 0)  -->
<svg version="1.1" id="Layer_1" xmlns="http://www.w3.org/2000/svg" xmlns:xlink="http://www.w3.org/1999/xlink" x="0px" y="0px"
	 viewBox="0 0 595.3 354.46" style="enable-background:new 0 0 595.3 354.46;" xml:space="preserve">
<style type="text/css">
	.st0{fill:#6A205F;}
</style>
<g>
	<path class="st0" d="M285.5,167.53h-44.58c2.73-10.07,11.87-16.71,21.55-16.71C274.49,150.82,282.45,156.76,285.5,167.53
		 M240.69,182.83h65.42v-4.14c0-10.77-2.5-19.44-7.57-26.78c-8.67-11.48-21.55-18.5-35.44-18.5c-11.17,0-21.94,4.84-30.21,13.5
		c-7.57,8.04-11.48,18.11-11.48,29.51c0,10.77,4.53,21.94,12.18,29.98c8.43,8.43,18.5,12.57,30.68,12.57
		c18.11,0,32.48-10.07,39.35-27.87h-20.53c-3.9,6.64-11.17,10.07-19.44,10.07C250.29,201.65,241.62,194.31,240.69,182.83"/>
	<path class="st0" d="M334.62,177.21c0-13.98,10.07-24.44,23.34-24.44c13.27,0,23.73,11.16,23.73,24.04
		c0,13.5-10.07,24.04-24.75,24.04C345.16,200.95,334.62,190.48,334.62,177.21 M335.91,142.39v-32.71h-18.73v107.97h18.73v-6.63
		c7.57,5.93,15.77,8.67,25.37,8.67c10.46,0,19.44-3.44,26.78-9.37c9.84-8.43,15.3-20.53,15.3-33.42c0-11.86-4.84-23.73-13.97-31.77
		c-7.57-7.34-17.41-10.77-28.18-10.77C351.29,134.12,343.25,136.46,335.91,142.39"/>
	<path class="st0" d="M417.4,136.22h18.11v81.43H417.4V136.22z M417.4,109.68h18.11v18.11H417.4V109.68z"/>
	<path class="st0" d="M464.29,175.81c0-13.27,10.46-23.34,23.34-23.34c11.87,0,22.95,10.46,22.95,24.44
		c0,12.57-10.77,23.34-22.64,23.34C475.06,200.24,464.29,190.17,464.29,175.81 M514.69,217.65h18.11v-81.43h-18.11v9.76
		c-5.54-8.04-13.97-11.87-25.84-11.87c-12.18,0-21.94,3.9-30.21,12.57c-7.57,8.04-11.48,18.5-11.48,29.98
		c0,24.44,18.11,42.78,42.08,42.78c12.57,0,20.84-3.44,25.37-11.86L514.69,217.65z"/>
	<polygon class="st0" points="53.73,253.09 103.38,253.09 157.09,199.54 210.64,253.09 260.92,253.09 182.23,174.4 261.62,95.08 
		211.35,95.08 157.09,149.42 103.14,95.08 53.02,95.08 131.95,174.4 	"/>
</g>
</svg>
